<svg data-v-423bf9ae="" xmlns="http://www.w3.org/2000/svg" viewBox="0 0 392.7273098171852 163" class="iconAbove"><!----><!----><!----><g data-v-423bf9ae="" id="6b7c896c-d54e-4c4a-96be-fcb1bab8029a" fill="#321615" transform="matrix(5.347593910151634,0,0,5.347593910151634,-3.636364013435866,89.31016132651507)"><path d="M0.68 13.30L0.98 12.06L1.10 11.98L1.10 11.98Q1.37 12.13 1.66 12.24L1.66 12.24L1.66 12.24Q1.95 12.36 2.24 12.44L2.24 12.44L2.24 12.44Q2.52 12.52 2.80 12.56L2.80 12.56L2.80 12.56Q3.07 12.60 3.31 12.60L3.31 12.60L3.31 12.60Q3.93 12.60 4.28 12.34L4.28 12.34L4.28 12.34Q4.63 12.08 4.63 11.68L4.63 11.68L4.63 11.68Q4.63 11.40 4.47 11.22L4.47 11.22L4.47 11.22Q4.31 11.05 4.05 10.92L4.05 10.92L4.05 10.92Q3.79 10.79 3.45 10.70L3.45 10.70L3.45 10.70Q3.12 10.60 2.77 10.50L2.77 10.50L2.77 10.50Q2.41 10.39 2.08 10.25L2.08 10.25L2.08 10.25Q1.74 10.12 1.48 9.91L1.48 9.91L1.48 9.91Q1.22 9.69 1.06 9.39L1.06 9.39L1.06 9.39Q0.90 9.08 0.90 8.64L0.90 8.64L0.90 8.64Q0.90 8.14 1.11 7.70L1.11 7.70L1.11 7.70Q1.33 7.27 1.73 6.95L1.73 6.95L1.73 6.95Q2.13 6.63 2.70 6.45L2.70 6.45L2.70 6.45Q3.27 6.26 3.98 6.26L3.98 6.26L3.98 6.26Q4.16 6.26 4.39 6.28L4.39 6.28L4.39 6.28Q4.63 6.29 4.88 6.32L4.88 6.32L4.88 6.32Q5.14 6.35 5.40 6.40L5.40 6.40L5.40 6.40Q5.66 6.45 5.89 6.52L5.89 6.52L5.58 7.75L5.43 7.83L5.43 7.83Q5.23 7.73 4.99 7.66L4.99 7.66L4.99 7.66Q4.76 7.58 4.52 7.54L4.52 7.54L4.52 7.54Q4.29 7.49 4.06 7.47L4.06 7.47L4.06 7.47Q3.84 7.44 3.67 7.44L3.67 7.44L3.67 7.44Q3.07 7.44 2.73 7.68L2.73 7.68L2.73 7.68Q2.39 7.92 2.39 8.33L2.39 8.33L2.39 8.33Q2.39 8.61 2.56 8.79L2.56 8.79L2.56 8.79Q2.72 8.97 2.98 9.10L2.98 9.10L2.98 9.10Q3.25 9.22 3.59 9.31L3.59 9.31L3.59 9.31Q3.93 9.41 4.28 9.51L4.28 9.51L4.28 9.51Q4.63 9.62 4.98 9.75L4.98 9.75L4.98 9.75Q5.32 9.89 5.58 10.10L5.58 10.10L5.58 10.10Q5.84 10.32 6.01 10.62L6.01 10.62L6.01 10.62Q6.17 10.93 6.17 11.38L6.17 11.38L6.17 11.38Q6.17 11.89 5.95 12.33L5.95 12.33L5.95 12.33Q5.74 12.77 5.33 13.09L5.33 13.09L5.33 13.09Q4.93 13.41 4.36 13.60L4.36 13.60L4.36 13.60Q3.79 13.78 3.10 13.78L3.10 13.78L3.10 13.78Q2.54 13.78 1.90 13.66L1.90 13.66L1.90 13.66Q1.26 13.54 0.68 13.30L0.68 13.30ZM11.06 13.78L11.06 13.78L11.06 13.78Q10.21 13.78 9.55 13.49L9.55 13.49L9.55 13.49Q8.90 13.21 8.46 12.72L8.46 12.72L8.46 12.72Q8.01 12.23 7.78 11.59L7.78 11.59L7.78 11.59Q7.55 10.94 7.55 10.23L7.55 10.23L7.55 10.23Q7.55 9.40 7.85 8.68L7.85 8.68L7.85 8.68Q8.14 7.96 8.67 7.42L8.67 7.42L8.67 7.42Q9.20 6.88 9.93 6.57L9.93 6.57L9.93 6.57Q10.66 6.26 11.54 6.26L11.54 6.26L11.54 6.26Q12.39 6.26 13.05 6.55L13.05 6.55L13.05 6.55Q13.71 6.84 14.15 7.33L14.15 7.33L14.15 7.33Q14.59 7.82 14.82 8.47L14.82 8.47L14.82 8.47Q15.05 9.11 15.05 9.83L15.05 9.83L15.05 9.83Q15.05 10.66 14.76 11.39L14.76 11.39L14.76 11.39Q14.46 12.11 13.92 12.64L13.92 12.64L13.92 12.64Q13.39 13.17 12.66 13.48L12.66 13.48L12.66 13.48Q11.93 13.78 11.06 13.78ZM11.35 12.60L11.35 12.60L11.35 12.60Q11.79 12.60 12.15 12.42L12.15 12.42L12.15 12.42Q12.51 12.24 12.77 11.91L12.77 11.91L12.77 11.91Q13.03 11.59 13.17 11.14L13.17 11.14L13.17 11.14Q13.32 10.68 13.32 10.14L13.32 10.14L13.32 10.14Q13.32 9.60 13.18 9.12L13.18 9.12L13.18 9.12Q13.04 8.63 12.77 8.26L12.77 8.26L12.77 8.26Q12.50 7.89 12.12 7.67L12.12 7.67L12.12 7.67Q11.74 7.44 11.25 7.44L11.25 7.44L11.25 7.44Q10.81 7.44 10.45 7.63L10.45 7.63L10.45 7.63Q10.08 7.81 9.83 8.14L9.83 8.14L9.83 8.14Q9.57 8.47 9.43 8.92L9.43 8.92L9.43 8.92Q9.28 9.38 9.28 9.92L9.28 9.92L9.28 9.92Q9.28 10.46 9.42 10.94L9.42 10.94L9.42 10.94Q9.56 11.43 9.83 11.80L9.83 11.80L9.83 11.80Q10.10 12.17 10.48 12.38L10.48 12.38L10.48 12.38Q10.86 12.60 11.35 12.60ZM16.90 13.64L16.90 2.69L18.55 2.69L18.55 13.64L16.90 13.64ZM24.75 12.58L24.75 12.58L24.75 12.58Q24.57 12.73 24.32 12.94L24.32 12.94L24.32 12.94Q24.07 13.15 23.77 13.33L23.77 13.33L23.77 13.33Q23.46 13.52 23.10 13.65L23.10 13.65L23.10 13.65Q22.74 13.78 22.35 13.78L22.35 13.78L22.35 13.78Q21.94 13.78 21.60 13.63L21.60 13.63L21.60 13.63Q21.25 13.49 21.00 13.22L21.00 13.22L21.00 13.22Q20.74 12.96 20.59 12.60L20.59 12.60L20.59 12.60Q20.45 12.23 20.45 11.79L20.45 11.79L20.45 11.79Q20.45 11.32 20.63 10.88L20.63 10.88L20.63 10.88Q20.82 10.43 21.26 10.08L21.26 10.08L21.26 10.08Q21.70 9.73 22.43 9.52L22.43 9.52L22.43 9.52Q23.15 9.30 24.22 9.30L24.22 9.30L24.72 9.30L24.72 8.74L24.72 8.74Q24.72 8.44 24.62 8.20L24.62 8.20L24.62 8.20Q24.51 7.96 24.33 7.79L24.33 7.79L24.33 7.79Q24.14 7.62 23.89 7.53L23.89 7.53L23.89 7.53Q23.63 7.44 23.32 7.44L23.32 7.44L23.32 7.44Q23.07 7.44 22.79 7.50L22.79 7.50L22.79 7.50Q22.51 7.56 22.24 7.66L22.24 7.66L22.24 7.66Q21.96 7.77 21.70 7.91L21.70 7.91L21.70 7.91Q21.44 8.05 21.24 8.21L21.24 8.21L21.12 8.14L20.80 6.99L20.80 6.99Q21.63 6.56 22.34 6.41L22.34 6.41L22.34 6.41Q23.05 6.26 23.67 6.26L23.67 6.26L23.67 6.26Q24.32 6.26 24.82 6.39L24.82 6.39L24.82 6.39Q25.32 6.52 25.67 6.79L25.67 6.79L25.67 6.79Q26.02 7.06 26.20 7.48L26.20 7.48L26.20 7.48Q26.38 7.89 26.38 8.46L26.38 8.46L26.38 11.81L26.38 11.81Q26.38 11.91 26.40 12.03L26.40 12.03L26.40 12.03Q26.41 12.15 26.47 12.26L26.47 12.26L26.47 12.26Q26.52 12.37 26.62 12.45L26.62 12.45L26.62 12.45Q26.71 12.52 26.88 12.52L26.88 12.52L26.88 12.52Q26.97 12.52 27.11 12.50L27.11 12.50L27.11 12.50Q27.25 12.47 27.38 12.41L27.38 12.41L27.38 13.23L27.38 13.23Q27.02 13.48 26.65 13.63L26.65 13.63L26.65 13.63Q26.28 13.78 25.94 13.78L25.94 13.78L25.94 13.78Q25.66 13.78 25.46 13.68L25.46 13.68L25.46 13.68Q25.27 13.58 25.13 13.41L25.13 13.41L25.13 13.41Q24.99 13.24 24.90 13.03L24.90 13.03L24.90 13.03Q24.81 12.81 24.75 12.58ZM24.72 11.70L24.72 10.11L24.29 10.11L24.29 10.11Q23.58 10.11 23.14 10.21L23.14 10.21L23.14 10.21Q22.71 10.31 22.47 10.48L22.47 10.48L22.47 10.48Q22.23 10.66 22.15 10.89L22.15 10.89L22.15 10.89Q22.07 11.12 22.07 11.38L22.07 11.38L22.07 11.38Q22.07 11.66 22.16 11.87L22.16 11.87L22.16 11.87Q22.24 12.09 22.38 12.23L22.38 12.23L22.38 12.23Q22.52 12.37 22.71 12.45L22.71 12.45L22.71 12.45Q22.90 12.52 23.12 12.52L23.12 12.52L23.12 12.52Q23.28 12.52 23.46 12.49L23.46 12.49L23.46 12.49Q23.64 12.45 23.83 12.35L23.83 12.35L23.83 12.35Q24.03 12.26 24.25 12.10L24.25 12.10L24.25 12.10Q24.47 11.94 24.72 11.70L24.72 11.70ZM37.08 12.15L37.08 12.98L37.08 12.98Q36.59 13.37 36.00 13.58L36.00 13.58L36.00 13.58Q35.40 13.78 34.72 13.78L34.72 13.78L34.72 13.78Q33.95 13.78 33.34 13.52L33.34 13.52L33.34 13.52Q32.72 13.27 32.29 12.81L32.29 12.81L32.29 12.81Q31.86 12.36 31.63 11.73L31.63 11.73L31.63 11.73Q31.40 11.09 31.40 10.34L31.40 10.34L31.40 10.34Q31.40 9.44 31.71 8.69L31.71 8.69L31.71 8.69Q32.03 7.94 32.57 7.40L32.57 7.40L32.57 7.40Q33.11 6.86 33.85 6.56L33.85 6.56L33.85 6.56Q34.59 6.26 35.44 6.26L35.44 6.26L35.44 6.26Q35.62 6.26 35.83 6.28L35.83 6.28L35.83 6.28Q36.05 6.30 36.27 6.33L36.27 6.33L36.27 6.33Q36.49 6.36 36.71 6.42L36.71 6.42L36.71 6.42Q36.92 6.48 37.11 6.56L37.11 6.56L36.81 7.83L36.67 7.90L36.67 7.90Q36.54 7.81 36.38 7.73L36.38 7.73L36.38 7.73Q36.21 7.64 36.02 7.58L36.02 7.58L36.02 7.58Q35.83 7.52 35.62 7.48L35.62 7.48L35.62 7.48Q35.42 7.44 35.22 7.44L35.22 7.44L35.22 7.44Q34.78 7.44 34.40 7.62L34.40 7.62L34.40 7.62Q34.02 7.79 33.74 8.11L33.74 8.11L33.74 8.11Q33.46 8.44 33.29 8.92L33.29 8.92L33.29 8.92Q33.13 9.39 33.13 9.99L33.13 9.99L33.13 9.99Q33.13 10.62 33.30 11.09L33.30 11.09L33.30 11.09Q33.48 11.57 33.80 11.88L33.80 11.88L33.80 11.88Q34.11 12.20 34.54 12.36L34.54 12.36L34.54 12.36Q34.97 12.52 35.48 12.52L35.48 12.52L35.48 12.52Q35.79 12.52 36.20 12.45L36.20 12.45L36.20 12.45Q36.60 12.37 37.08 12.15L37.08 12.15ZM41.95 13.78L41.95 13.78L41.95 13.78Q41.10 13.78 40.44 13.49L40.44 13.49L40.44 13.49Q39.79 13.21 39.35 12.72L39.35 12.72L39.35 12.72Q38.90 12.23 38.67 11.59L38.67 11.59L38.67 11.59Q38.45 10.94 38.45 10.23L38.45 10.23L38.45 10.23Q38.45 9.40 38.74 8.68L38.74 8.68L38.74 8.68Q39.03 7.96 39.56 7.42L39.56 7.42L39.56 7.42Q40.09 6.88 40.82 6.57L40.82 6.57L40.82 6.57Q41.56 6.26 42.43 6.26L42.43 6.26L42.43 6.26Q43.29 6.26 43.94 6.55L43.94 6.55L43.94 6.55Q44.60 6.84 45.04 7.33L45.04 7.33L45.04 7.33Q45.49 7.82 45.72 8.47L45.72 8.47L45.72 8.47Q45.94 9.11 45.94 9.83L45.94 9.83L45.94 9.83Q45.94 10.66 45.65 11.39L45.65 11.39L45.65 11.39Q45.35 12.11 44.82 12.64L44.82 12.64L44.82 12.64Q44.28 13.17 43.55 13.48L43.55 13.48L43.55 13.48Q42.82 13.78 41.95 13.78ZM42.24 12.60L42.24 12.60L42.24 12.60Q42.68 12.60 43.04 12.42L43.04 12.42L43.04 12.42Q43.40 12.24 43.66 11.91L43.66 11.91L43.66 11.91Q43.92 11.59 44.06 11.14L44.06 11.14L44.06 11.14Q44.21 10.68 44.21 10.14L44.21 10.14L44.21 10.14Q44.21 9.60 44.07 9.12L44.07 9.12L44.07 9.12Q43.93 8.63 43.66 8.26L43.66 8.26L43.66 8.26Q43.39 7.89 43.01 7.67L43.01 7.67L43.01 7.67Q42.63 7.44 42.14 7.44L42.14 7.44L42.14 7.44Q41.70 7.44 41.34 7.63L41.34 7.63L41.34 7.63Q40.97 7.81 40.72 8.14L40.72 8.14L40.72 8.14Q40.46 8.47 40.32 8.92L40.32 8.92L40.32 8.92Q40.17 9.38 40.17 9.92L40.17 9.92L40.17 9.92Q40.17 10.46 40.31 10.94L40.31 10.94L40.31 10.94Q40.46 11.43 40.72 11.80L40.72 11.80L40.72 11.80Q40.99 12.17 41.37 12.38L41.37 12.38L41.37 12.38Q41.75 12.60 42.24 12.60ZM48.41 13.64L48.41 7.58L46.95 7.58L47.07 6.75L48.41 6.40L48.41 6.08L48.41 6.08Q48.41 5.36 48.63 4.72L48.63 4.72L48.63 4.72Q48.85 4.08 49.26 3.60L49.26 3.60L49.26 3.60Q49.68 3.12 50.29 2.84L50.29 2.84L50.29 2.84Q50.89 2.56 51.67 2.56L51.67 2.56L51.67 2.56Q51.97 2.56 52.31 2.60L52.31 2.60L52.31 2.60Q52.64 2.65 52.94 2.74L52.94 2.74L52.66 3.92L52.53 3.99L52.53 3.99Q52.32 3.88 52.07 3.81L52.07 3.81L52.07 3.81Q51.82 3.74 51.54 3.74L51.54 3.74L51.54 3.74Q51.15 3.74 50.87 3.90L50.87 3.90L50.87 3.90Q50.59 4.05 50.41 4.33L50.41 4.33L50.41 4.33Q50.23 4.61 50.15 4.99L50.15 4.99L50.15 4.99Q50.07 5.37 50.07 5.81L50.07 5.81L50.07 6.40L52.47 6.40L52.18 7.58L50.07 7.58L50.07 13.64L48.41 13.64ZM54.68 13.64L54.68 7.58L53.22 7.58L53.35 6.75L54.69 6.40L54.69 6.08L54.69 6.08Q54.69 5.36 54.91 4.72L54.91 4.72L54.91 4.72Q55.13 4.08 55.54 3.60L55.54 3.60L55.54 3.60Q55.95 3.12 56.56 2.84L56.56 2.84L56.56 2.84Q57.17 2.56 57.95 2.56L57.95 2.56L57.95 2.56Q58.25 2.56 58.58 2.60L58.58 2.60L58.58 2.60Q58.91 2.65 59.22 2.74L59.22 2.74L58.94 3.92L58.80 3.99L58.80 3.99Q58.59 3.88 58.34 3.81L58.34 3.81L58.34 3.81Q58.09 3.74 57.82 3.74L57.82 3.74L57.82 3.74Q57.42 3.74 57.14 3.90L57.14 3.90L57.14 3.90Q56.86 4.05 56.68 4.33L56.68 4.33L56.68 4.33Q56.51 4.61 56.42 4.99L56.42 4.99L56.42 4.99Q56.34 5.37 56.34 5.81L56.34 5.81L56.34 6.40L58.75 6.40L58.45 7.58L56.34 7.58L56.34 13.64L54.68 13.64ZM65.78 12.15L65.78 12.98L65.78 12.98Q65.47 13.19 65.13 13.34L65.13 13.34L65.13 13.34Q64.78 13.49 64.41 13.59L64.41 13.59L64.41 13.59Q64.04 13.69 63.67 13.74L63.67 13.74L63.67 13.74Q63.31 13.78 62.98 13.78L62.98 13.78L62.98 13.78Q62.22 13.78 61.57 13.55L61.57 13.55L61.57 13.55Q60.92 13.32 60.43 12.87L60.43 12.87L60.43 12.87Q59.95 12.41 59.68 11.75L59.68 11.75L59.68 11.75Q59.40 11.09 59.40 10.24L59.40 10.24L59.40 10.24Q59.40 9.33 59.71 8.59L59.71 8.59L59.71 8.59Q60.02 7.85 60.54 7.34L60.54 7.34L60.54 7.34Q61.05 6.82 61.73 6.54L61.73 6.54L61.73 6.54Q62.41 6.26 63.15 6.26L63.15 6.26L63.15 6.26Q63.77 6.26 64.30 6.46L64.30 6.46L64.30 6.46Q64.83 6.67 65.21 7.06L65.21 7.06L65.21 7.06Q65.60 7.46 65.82 8.05L65.82 8.05L65.82 8.05Q66.04 8.65 66.04 9.43L66.04 9.43L66.04 9.43Q66.04 9.63 66.02 9.84L66.02 9.84L66.02 9.84Q66.00 10.06 65.96 10.26L65.96 10.26L61.12 10.26L61.12 10.26Q61.12 10.81 61.31 11.24L61.31 11.24L61.31 11.24Q61.51 11.66 61.87 11.95L61.87 11.95L61.87 11.95Q62.22 12.23 62.72 12.38L62.72 12.38L62.72 12.38Q63.22 12.52 63.82 12.52L63.82 12.52L63.82 12.52Q63.99 12.52 64.22 12.51L64.22 12.51L64.22 12.51Q64.45 12.50 64.71 12.46L64.71 12.46L64.71 12.46Q64.97 12.41 65.24 12.34L65.24 12.34L65.24 12.34Q65.52 12.27 65.78 12.15L65.78 12.15ZM61.12 9.45L64.50 9.45L64.50 9.45Q64.50 8.96 64.37 8.58L64.37 8.58L64.37 8.58Q64.24 8.20 64.03 7.95L64.03 7.95L64.03 7.95Q63.81 7.70 63.52 7.57L63.52 7.57L63.52 7.57Q63.23 7.44 62.89 7.44L62.89 7.44L62.89 7.44Q62.51 7.44 62.19 7.59L62.19 7.59L62.19 7.59Q61.87 7.75 61.63 8.02L61.63 8.02L61.63 8.02Q61.39 8.29 61.26 8.65L61.26 8.65L61.26 8.65Q61.12 9.02 61.12 9.45L61.12 9.45ZM73.86 12.15L73.86 12.98L73.86 12.98Q73.55 13.19 73.21 13.34L73.21 13.34L73.21 13.34Q72.86 13.49 72.49 13.59L72.49 13.59L72.49 13.59Q72.12 13.69 71.75 13.74L71.75 13.74L71.75 13.74Q71.39 13.78 71.06 13.78L71.06 13.78L71.06 13.78Q70.30 13.78 69.65 13.55L69.65 13.55L69.65 13.55Q69.00 13.32 68.51 12.87L68.51 12.87L68.51 12.87Q68.03 12.41 67.76 11.75L67.76 11.75L67.76 11.75Q67.48 11.09 67.48 10.24L67.48 10.24L67.48 10.24Q67.48 9.33 67.79 8.59L67.79 8.59L67.79 8.59Q68.10 7.85 68.62 7.34L68.62 7.34L68.62 7.34Q69.13 6.82 69.81 6.54L69.81 6.54L69.81 6.54Q70.49 6.26 71.23 6.26L71.23 6.26L71.23 6.26Q71.85 6.26 72.38 6.46L72.38 6.46L72.38 6.46Q72.91 6.67 73.29 7.06L73.29 7.06L73.29 7.06Q73.68 7.46 73.90 8.05L73.90 8.05L73.90 8.05Q74.12 8.65 74.12 9.43L74.12 9.43L74.12 9.43Q74.12 9.63 74.10 9.84L74.10 9.84L74.10 9.84Q74.08 10.06 74.04 10.26L74.04 10.26L69.20 10.26L69.20 10.26Q69.20 10.81 69.40 11.24L69.40 11.24L69.40 11.24Q69.59 11.66 69.95 11.95L69.95 11.95L69.95 11.95Q70.30 12.23 70.80 12.38L70.80 12.38L70.80 12.38Q71.30 12.52 71.90 12.52L71.90 12.52L71.90 12.52Q72.07 12.52 72.30 12.51L72.30 12.51L72.30 12.51Q72.53 12.50 72.79 12.46L72.79 12.46L72.79 12.46Q73.05 12.41 73.32 12.34L73.32 12.34L73.32 12.34Q73.60 12.27 73.86 12.15L73.86 12.15ZM69.20 9.45L72.58 9.45L72.58 9.45Q72.58 8.96 72.45 8.58L72.45 8.58L72.45 8.58Q72.32 8.20 72.11 7.95L72.11 7.95L72.11 7.95Q71.89 7.70 71.60 7.57L71.60 7.57L71.60 7.57Q71.31 7.44 70.97 7.44L70.97 7.44L70.97 7.44Q70.59 7.44 70.27 7.59L70.27 7.59L70.27 7.59Q69.95 7.75 69.71 8.02L69.71 8.02L69.71 8.02Q69.47 8.29 69.34 8.65L69.34 8.65L69.34 8.65Q69.20 9.02 69.20 9.45L69.20 9.45Z"></path></g><defs data-v-423bf9ae=""><linearGradient data-v-423bf9ae="" gradientTransform="rotate(25)" id="011b5503-4b0d-4748-bae1-c29670e1da1f" x1="0%" y1="0%" x2="100%" y2="0%"><stop data-v-423bf9ae="" offset="0%" style="stop-color: rgb(219, 36, 40); stop-opacity: 1;"></stop><stop data-v-423bf9ae="" offset="100%" style="stop-color: rgb(160, 153, 139); stop-opacity: 1;"></stop></linearGradient></defs><g data-v-423bf9ae="" id="42cce04f-500c-48bf-b9ce-49f09a36da20" transform="matrix(1.2376067321555986,0,0,1.2376067321555986,133.90567438652505,-17.478562413734323)" stroke="none" fill="url(#011b5503-4b0d-4748-bae1-c29670e1da1f)"><path d="M72.536 28.785c-1.314 0-2.578-.425-3.79 0V23.89h-.007c0-5.108-12.247-9.25-27.358-9.25-15.109 0-27.358 4.143-27.358 9.25v54.218c0 5.107 12.249 9.253 27.358 9.253 15.111 0 27.365-4.143 27.365-9.253v-4.896c1.212.426 2.476 0 3.79 0 8.66 0 15.44-9.755 15.44-22.212s-6.78-22.215-15.44-22.215zm-31.155 1.101c-15.733 0-23.899-4.387-24.349-6.054.453-1.552 8.616-5.939 24.349-5.939s23.898 4.39 24.348 6.054c-.444 1.552-8.608 5.939-24.348 5.939zm31.155 38.45c-1.327 0-2.609-1.553-3.79-2.323V36.248c1.181-.774 2.463-2.587 3.79-2.587C78.263 33.661 83.1 41.6 83.1 51c.001 9.396-4.837 17.336-10.564 17.336z"></path></g><!----></svg>